<svg xmlns="http://www.w3.org/2000/svg" width="174" height="174" viewBox="0 0 174 174">
  <g id="Group_3" data-name="Group 3" transform="translate(-815 -366)" style="isolation: isolate">
    <g id="Ellipse_4" data-name="Ellipse 4" transform="translate(815 366)" fill="#fff" stroke="#0dc90d" stroke-width="5">
      <circle cx="87" cy="87" r="87" stroke="none"/>
      <circle cx="87" cy="87" r="84.5" fill="none"/>
    </g>
    <g id="Logo" transform="translate(833.055 376.995)">
      <g id="Viadeo" transform="translate(0 0)">
        <path id="Path_9" data-name="Path 9" d="M116.5,99.614a49.887,49.887,0,0,1-43.953,26.554c-27.613,0-50-22.733-50-50.781A50.8,50.8,0,0,1,53.414,28.456C59.925,19.928,69.56,11.7,87.6,8.319c1.686-.942-9.8-3.058-15.095-3.058C34.391,5.259,3.5,36.857,3.5,75.834s30.891,70.582,69,70.582,69.006-31.6,69-70.83C136.247,86.326,128.283,95.038,116.5,99.614Z" transform="translate(-3.5 6.01)" fill="#014601"/>
        <path id="Path_10" data-name="Path 10" d="M116.5,99.614a49.887,49.887,0,0,1-43.953,26.554c-27.613,0-50-22.733-50-50.781A50.8,50.8,0,0,1,53.414,28.456C59.925,19.928,69.56,11.7,87.6,8.319c1.686-.942-9.8-3.058-15.095-3.058C34.391,5.259,3.5,36.857,3.5,75.834s30.891,70.582,69,70.582,69.006-31.6,69-70.83C136.247,86.326,128.283,95.038,116.5,99.614Z" transform="translate(-3.5 6.01)" fill="#0ee123"/>
        <path id="Path_11" data-name="Path 11" d="M111.286,1.467s-3.949,9.13-44.16,19.867C12.93,36.806,32.9,81.344,37.716,85.362c35.139-5.137,58.2-39.215,58.2-39.215,1.025-1.4,1.435-1.173.833.491,0,0-8.081,32.555-54.414,42.588C26.058,92.75,20.491,103.41,20.491,103.41L24.273,109c11.342-10.742,26.466-11.6,26.466-11.6,89.9,24.494,63.221-95.261,63.221-95.261-.345-1.737-1.443-2-2.674-.665Z" transform="translate(20.776 -0.62)" fill="#0dc90d"/>
      </g>
      <path id="Path_12" data-name="Path 12" d="M107.7.892c-.517-.483-1.268-.321-2.089.568,0,0-3.949,9.13-44.16,19.867C7.252,36.8,27.221,81.338,32.038,85.355c35.139-5.137,58.2-39.215,58.2-39.215,1.025-1.4,1.435-1.173.833.491" transform="translate(26.086 -0.614)" fill="#3fef3f"/>
      <path id="Path_13" data-name="Path 13" d="M115.029,102.158a49.8,49.8,0,0,1-42.484,24.011c-27.613,0-50-22.733-50-50.781A50.8,50.8,0,0,1,53.414,28.457C59.85,20.029,69.354,11.9,86.994,8.449Q85.5,7.545,83.97,6.71A63.37,63.37,0,0,0,72.506,5.26C34.391,5.26,3.5,36.858,3.5,75.835c0,31.7,20.421,58.507,48.539,67.425,27.788-2.111,51.407-18.3,62.99-41.1Z" transform="translate(-3.31 6.009)" fill="#0dc90d"/>
      <path id="Path_16" data-name="Path 16" d="M22.549,75.388A50.8,50.8,0,0,1,53.414,28.457C59.85,20.029,69.354,11.9,86.994,8.449Q85.5,7.545,83.97,6.71A63.37,63.37,0,0,0,72.506,5.26C34.391,5.26,3.5,36.858,3.5,75.835A72.366,72.366,0,0,0,4.085,84.6c15.882,19.986,34.848,33.8,53.1,39.106A50.705,50.705,0,0,1,22.549,75.388Z" transform="translate(-3.5 6.009)" fill="#3fef3f"/>
    </g>
  </g>
</svg>
